<?xml version="1.0" encoding="UTF-8"?>
<svg version="1.1" xmlns="http://www.w3.org/2000/svg" width="641" height="575">
<path d="M0 0 C211.53 0 423.06 0 641 0 C641 189.75 641 379.5 641 575 C429.47 575 217.94 575 0 575 C0 385.25 0 195.5 0 0 Z " fill="#FD0000" transform="translate(0,0)"/>
<path d="M0 0 C86.46 0 172.92 0 262 0 C262 189.75 262 379.5 262 575 C50.47 575 -161.06 575 -379 575 C-379 464.12 -379 353.24 -379 239 C-378.67 239 -378.34 239 -378 239 C-377.94054199 239.77263184 -377.88108398 240.54526367 -377.81982422 241.34130859 C-376.24013133 261.04528634 -373.36737066 279.92257347 -367.8671875 298.98046875 C-367.21425606 301.25396425 -366.6729145 303.55994622 -366.1875 305.875 C-365.17920305 310.54543148 -363.85059947 315.10712093 -362.5 319.6875 C-362.28625732 320.41243652 -362.07251465 321.13737305 -361.85229492 321.88427734 C-360.64164608 325.94963149 -359.35718364 329.98064844 -358 334 C-356.77741728 337.9394332 -356 340.85543245 -356 345 C-355.34 345 -354.68 345 -354 345 C-351.14804486 353.19178604 -348.62595229 361.47142006 -347 370 C-346.34 370 -345.68 370 -345 370 C-344.76925781 370.82242187 -344.53851563 371.64484375 -344.30078125 372.4921875 C-342.38955861 379.03415905 -340.24775263 385.00256902 -336.953125 390.9765625 C-336 393 -336 393 -336 396 C-335.34 396 -334.68 396 -334 396 C-333.67 398.64 -333.34 401.28 -333 404 C-332.34 404 -331.68 404 -331 404 C-329.23537317 407.08809695 -329 408.23312136 -329 412 C-328.34 412 -327.68 412 -327 412 C-327 412.99 -327 413.98 -327 415 C-326.34 415 -325.68 415 -325 415 C-325 416.32 -325 417.64 -325 419 C-324.34 419 -323.68 419 -323 419 C-322.505 422.465 -322.505 422.465 -322 426 C-321.34 426 -320.68 426 -320 426 C-320 426.99 -320 427.98 -320 429 C-319.34 429 -318.68 429 -318 429 C-317.15930585 430.60032137 -316.32768495 432.20541171 -315.5 433.8125 C-314.80390625 435.15248047 -314.80390625 435.15248047 -314.09375 436.51953125 C-313 439 -313 439 -313 442 C-312.34 442 -311.68 442 -311 442 C-310.80664062 442.55429687 -310.61328125 443.10859375 -310.4140625 443.6796875 C-310.15367187 444.40414063 -309.89328125 445.12859375 -309.625 445.875 C-309.36976563 446.59429687 -309.11453125 447.31359375 -308.8515625 448.0546875 C-308.06122217 450.18157994 -308.06122217 450.18157994 -306 452 C-306 452.99 -306 453.98 -306 455 C-305.34 455 -304.68 455 -304 455 C-302.3633245 457.26298453 -300.85434489 459.51267112 -299.375 461.875 C-298.95476562 462.52597656 -298.53453125 463.17695313 -298.1015625 463.84765625 C-295 468.73161019 -295 468.73161019 -295 471 C-294.34 471 -293.68 471 -293 471 C-292.5875 472.0725 -292.175 473.145 -291.75 474.25 C-290.35095769 477.5610668 -288.58924787 479.49706039 -286 482 C-285.25 484.25 -285.25 484.25 -285 486 C-284.01 486 -283.02 486 -282 486 C-281.67 487.65 -281.34 489.3 -281 491 C-280.34 491 -279.68 491 -279 491 C-279 491.66 -279 492.32 -279 493 C-278.401875 493.226875 -277.80375 493.45375 -277.1875 493.6875 C-274.40651597 495.35609042 -273.4358084 497.1283832 -272 500 C-272 500.66 -272 501.32 -272 502 C-271.401875 502.2475 -270.80375 502.495 -270.1875 502.75 C-267.68373081 504.18072525 -266.51927612 505.5691582 -265 508 C-265 508.66 -265 509.32 -265 510 C-264.41347656 510.25652344 -263.82695312 510.51304687 -263.22265625 510.77734375 C-260.80930773 512.10489751 -259.31080621 513.55508686 -257.4375 515.5625 C-255.1656506 517.99626295 -254.23220618 518.92259794 -251 520 C-249.66666667 521.66666667 -248.33333333 523.33333333 -247 525 C-246.01 525.33 -245.02 525.66 -244 526 C-242.29115995 527.62339805 -240.62553283 529.29319053 -239 531 C-238.401875 531.556875 -237.80375 532.11375 -237.1875 532.6875 C-236 534 -236 534 -236 536 C-235.1646875 536.12375 -235.1646875 536.12375 -234.3125 536.25 C-231.29809241 537.2276457 -229.43261814 538.99309004 -227 541 C-226.2575 541.37125 -225.515 541.7425 -224.75 542.125 C-223 543 -223 543 -222 545 C-221.01 545.33 -220.02 545.66 -219 546 C-219 546.66 -219 547.32 -219 548 C-217.72125 548.309375 -216.4425 548.61875 -215.125 548.9375 C-212.89898325 549.47605244 -211.05260001 549.9737 -209 551 C-209 551.66 -209 552.32 -209 553 C-205.02907871 554.66522506 -200.98882845 556.00688098 -196.890625 557.31640625 C-195 558 -195 558 -194 559 C-191.62176941 559.5011597 -189.23219118 559.89916765 -186.8359375 560.3046875 C-183.36107408 561.15665126 -180.28054029 562.57819378 -177 564 C-158.99552608 569.73265937 -139.8732749 573.16788155 -120.99609375 573.1328125 C-119.84117935 573.13376923 -118.68626495 573.13472595 -117.49635315 573.13571167 C-115.05136053 573.13639051 -112.60636608 573.13455689 -110.16137695 573.13037109 C-106.50142115 573.1250922 -102.84159226 573.1302878 -99.18164062 573.13671875 C-84.42920058 573.14046597 -69.73123857 572.79700045 -55 572 C-55 571.34 -55 570.68 -55 570 C-46.2111145 568.28636848 -37.41630012 567.1432089 -28.52148438 566.14453125 C-23.4309358 565.54259734 -18.80960753 564.85952849 -14 563 C-11.77355952 562.28314372 -9.54433554 561.57487874 -7.3125 560.875 C-6.19488281 560.52179687 -5.07726562 560.16859375 -3.92578125 559.8046875 C-1 559 -1 559 2 559 C2 558.34 2 557.68 2 557 C4.43681587 556.49645133 6.87435439 555.99703244 9.3125 555.5 C10.00279297 555.35691406 10.69308594 555.21382812 11.40429688 555.06640625 C14.32524773 554.47374956 17.01108122 554 20 554 C20 553.34 20 552.68 20 552 C21.10859375 551.66226563 22.2171875 551.32453125 23.359375 550.9765625 C24.82297298 550.52622466 26.28651155 550.07569367 27.75 549.625 C28.47960937 549.40328125 29.20921875 549.1815625 29.9609375 548.953125 C33.48924114 547.86255842 36.70397332 546.67910793 40 545 C42.75 544.875 42.75 544.875 45 545 C45 544.34 45 543.68 45 543 C48.63423209 540.67409146 51.77088331 540.83734167 56 541 C56.33 540.01 56.66 539.02 57 538 C58.5390625 537.04296875 58.5390625 537.04296875 60.625 536.1875 C61.42679687 535.85492187 62.22859375 535.52234375 63.0546875 535.1796875 C64.51261719 534.59574219 64.51261719 534.59574219 66 534 C67.25290918 533.4825087 68.50549308 532.96422939 69.7578125 532.4453125 C71.08813659 531.90005231 72.41886723 531.35578299 73.75 530.8125 C74.38760254 530.55041748 75.02520508 530.28833496 75.68212891 530.01831055 C79.09754612 528.64686716 82.36166228 527.57630159 86 527 C86 526.34 86 525.68 86 525 C86.75023437 524.70867188 87.50046875 524.41734375 88.2734375 524.1171875 C94.46074664 521.63914681 100.06382185 518.87079363 105.70703125 515.3359375 C108.34908522 513.79661474 110.9692093 512.83000928 113.8515625 511.84765625 C119.53335566 509.60593059 124.92757333 506.38161778 130 503 C131.32 503 132.64 503 134 503 C134 502.34 134 501.68 134 501 C135.60032137 500.15930585 137.20541171 499.32768495 138.8125 498.5 C139.70582031 498.0359375 140.59914063 497.571875 141.51953125 497.09375 C144 496 144 496 147 496 C147 495.34 147 494.68 147 494 C148.98 493.67 150.96 493.34 153 493 C153 492.34 153 491.68 153 491 C157.41967154 487.91962287 162.54795899 485 168 485 C168 484.34 168 483.68 168 483 C170.31 482.67 172.62 482.34 175 482 C175 481.34 175 480.68 175 480 C176.269553 479.35165346 177.54069706 478.70642185 178.8125 478.0625 C179.87404297 477.52302734 179.87404297 477.52302734 180.95703125 476.97265625 C183 476 183 476 186 475 C186.33 474.01 186.66 473.02 187 472 C189.1628993 470.48567702 191.30399532 469.10527679 193.5625 467.75 C199.83463133 463.86266407 205.52351043 459.72542339 210.58203125 454.3046875 C212 453 212 453 214 453 C214 452.34 214 451.68 214 451 C214.99 450.67 215.98 450.34 217 450 C218.60207572 447.90805694 218.60207572 447.90805694 220.0625 445.4375 C221.59765625 442.93359375 221.59765625 442.93359375 223 441 C223.66 441 224.32 441 225 441 C225.268125 440.46375 225.53625 439.9275 225.8125 439.375 C226.4003125 438.199375 226.4003125 438.199375 227 437 C227.680625 435.515 227.680625 435.515 228.375 434 C230 431 230 431 231.9375 429.125 C235.71749509 425.23045961 237.83620576 420.26646281 239 415 C239.66 415 240.32 415 241 415 C241 413.68 241 412.36 241 411 C241.66 411 242.32 411 243 411 C243.19335938 410.14535156 243.38671875 409.29070312 243.5859375 408.41015625 C243.97652344 406.75306641 243.97652344 406.75306641 244.375 405.0625 C244.75785156 403.40927734 244.75785156 403.40927734 245.1484375 401.72265625 C245.42945313 400.82417969 245.71046875 399.92570312 246 399 C246.66 398.67 247.32 398.34 248 398 C248.61421541 395.51081123 249.12269063 393.08267748 249.5625 390.5625 C250.8930131 383.2139738 250.8930131 383.2139738 252 381 C252.66 381 253.32 381 254 381 C253.9690625 379.4221875 253.9690625 379.4221875 253.9375 377.8125 C253.98896802 374.67295096 254.26517187 372.03116604 255 369 C255.66 369 256.32 369 257 369 C258.72521579 341.11363424 260.30803987 313.2596573 260.3125 285.3125 C260.31572266 284.32523926 260.31894531 283.33797852 260.32226562 282.32080078 C260.36062037 263.268082 258.92365183 247.03907258 249.171875 230.21484375 C248 228 248 228 248 226 C247.34 226 246.68 226 246 226 C246 225.01 246 224.02 246 223 C245.34 223 244.68 223 244 223 C244 222.34 244 221.68 244 221 C243.34 221 242.68 221 242 221 C241.566875 220.236875 241.13375 219.47375 240.6875 218.6875 C238.75210591 215.60520571 237.15479146 214.7276239 234 213 C233.23945312 212.37222656 232.47890625 211.74445313 231.6953125 211.09765625 C228.97217272 208.97834311 226.34769633 207.50787335 223.25 206 C222.28578125 205.525625 221.3215625 205.05125 220.328125 204.5625 C219.22984375 204.046875 218.1315625 203.53125 217 203 C215.98123779 202.5196228 215.98123779 202.5196228 214.94189453 202.02954102 C209.53121662 199.5420976 204.08610377 197.61265246 198.375 195.9375 C197.0597937 195.55126465 197.0597937 195.55126465 195.71801758 195.15722656 C188.2141949 192.99586265 180.7391141 191.10876091 173 190 C172.2889209 189.89703613 171.5778418 189.79407227 170.84521484 189.68798828 C143.03022233 185.95375917 101.92597571 182.02467476 75 191 C74.00742187 190.98066406 73.01484375 190.96132812 71.9921875 190.94140625 C66.88601015 191.01635014 62.12220399 191.94560992 57.125 192.9375 C56.16335938 193.11990234 55.20171875 193.30230469 54.2109375 193.49023438 C49.759371 194.00649567 49.759371 194.00649567 46 196 C44.845 196.144375 43.69 196.28875 42.5 196.4375 C41.345 196.623125 40.19 196.80875 39 197 C38.67 197.66 38.34 198.32 38 199 C36.04637267 199.15922981 34.08491743 199.22284179 32.125 199.25 C24.35263014 199.66709312 9.74161775 201.25838225 4 207 C2.700625 207.20625 1.40125 207.4125 0.0625 207.625 C-5.30702564 208.64443168 -10.23754931 210.46040622 -15.3125 212.4375 C-16.08907959 212.7380127 -16.86565918 213.03852539 -17.66577148 213.34814453 C-20.90301332 214.63436852 -23.86526531 215.91871683 -26.85546875 217.72265625 C-29 219 -29 219 -32 219 C-32 219.66 -32 220.32 -32 221 C-36.2837641 223.57025846 -40.1725201 225.58707905 -45 227 C-45 227.66 -45 228.32 -45 229 C-45.66 229 -46.32 229 -47 229 C-47 229.66 -47 230.32 -47 231 C-47.639375 231.474375 -48.27875 231.94875 -48.9375 232.4375 C-51.28372963 233.9091365 -51.28372963 233.9091365 -52 237 C-52.66 237 -53.32 237 -54 237 C-54.144375 237.886875 -54.28875 238.77375 -54.4375 239.6875 C-54.76054246 241.58986116 -55.10623701 243.4893341 -55.515625 245.375 C-57.05315011 253.70739414 -56.23823137 259.71553984 -52 267 C-52 267.66 -52 268.32 -52 269 C-51.34 269 -50.68 269 -50 269 C-48.99851522 269.99851301 -47.99884058 270.99884192 -47 272 C-27.80982458 284.99652092 -0.04542118 281.99893164 21.8125 280 C34.18598152 278.88136602 46.52126696 278.77244028 58.9375 278.75 C60.37991562 278.74250732 60.37991562 278.74250732 61.85147095 278.73486328 C86.34410992 278.63020618 86.34410992 278.63020618 97.375 283.375 C98.80972656 283.97441406 98.80972656 283.97441406 100.2734375 284.5859375 C103.20362169 286.10560322 105.56315084 287.77582131 108 290 C108 290.66 108 291.32 108 292 C108.66 292 109.32 292 110 292 C110.80229137 293.49434423 111.59121867 294.99586472 112.375 296.5 C112.81585938 297.3353125 113.25671875 298.170625 113.7109375 299.03125 C116.89352826 306.36085296 117.31476245 313.0526716 117.25 320.9375 C117.25773437 321.87529297 117.26546875 322.81308594 117.2734375 323.77929688 C117.25165086 331.61703991 115.95791324 338.66597571 113.375 346.0625 C112.98441406 347.19365234 112.98441406 347.19365234 112.5859375 348.34765625 C112.29589844 349.16556641 112.29589844 349.16556641 112 350 C111.34 350 110.68 350 110 350 C109.71125 350.763125 109.4225 351.52625 109.125 352.3125 C108 355 108 355 106 358 C105.34 358 104.68 358 104 358 C103.731875 358.639375 103.46375 359.27875 103.1875 359.9375 C102 362 102 362 99 363 C99 363.66 99 364.32 99 365 C98.34 365 97.68 365 97 365 C96.67 365.99 96.34 366.98 96 368 C94.68 368 93.36 368 92 368 C92 368.66 92 369.32 92 370 C91.01 370 90.02 370 89 370 C89 370.66 89 371.32 89 372 C88.34 372 87.68 372 87 372 C87 372.66 87 373.32 87 374 C84.69 374.33 82.38 374.66 80 375 C80 375.66 80 376.32 80 377 C79.01 377 78.02 377 77 377 C77 377.66 77 378.32 77 379 C75.68 379 74.36 379 73 379 C73 379.66 73 380.32 73 381 C71.97261719 381.37511719 70.94523437 381.75023437 69.88671875 382.13671875 C63.5271037 384.47981584 57.23670975 386.80406796 51.125 389.75 C46.94338393 391.72151268 43.05659069 392.7988958 38.484375 393.4453125 C35.78463757 394.04808407 33.42096005 395.08386886 30.90087891 396.20654297 C27.62124349 397.57551485 24.22574673 398.52411801 20.8125 399.5 C19.69983765 399.82363525 19.69983765 399.82363525 18.56469727 400.15380859 C14.21015848 401.40790824 9.84280605 402.56010413 5.4375 403.625 C0.07501411 404.92320841 -5.04792842 406.52396421 -10 409 C-11.95513155 409.18384073 -13.91462482 409.32232208 -15.875 409.4375 C-21.42677103 409.82397688 -26.81161909 410.56021254 -32.2890625 411.5234375 C-50.41046699 414.70904463 -70.74784104 413.12337106 -87 404 C-88.33051054 403.32771738 -89.66316725 402.65962142 -91 402 C-91 401.34 -91 400.68 -91 400 C-92.65 399.67 -94.3 399.34 -96 399 C-96 398.34 -96 397.68 -96 397 C-96.639375 396.896875 -97.27875 396.79375 -97.9375 396.6875 C-98.9584375 396.3471875 -98.9584375 396.3471875 -100 396 C-100.33 395.01 -100.66 394.02 -101 393 C-101.721875 392.731875 -102.44375 392.46375 -103.1875 392.1875 C-106.9182157 390.61230893 -109.4942389 388.16879754 -112 385 C-112 384.34 -112 383.68 -112 383 C-112.66 383 -113.32 383 -114 383 C-114 382.34 -114 381.68 -114 381 C-114.66 381 -115.32 381 -116 381 C-119 376.61538462 -119 376.61538462 -119 374 C-119.99 373.67 -120.98 373.34 -122 373 C-123.05008653 371.02583732 -124.04987876 369.02417134 -125 367 C-125.66 366.34 -126.32 365.68 -127 365 C-127.39764263 363.01178687 -127.73775349 361.01055661 -128 359 C-128.66 359 -129.32 359 -130 359 C-133.62719462 352.30126611 -136.35628074 345.51358332 -138.7890625 338.296875 C-139.93386808 334.98150786 -139.93386808 334.98150786 -141.5625 331.91796875 C-142.95626934 329.08876849 -143.70451986 326.63190584 -144.375 323.5625 C-145.47447758 318.88252475 -146.84750675 314.41158625 -148.4375 309.875 C-150.87255133 302.84546071 -152.49812244 295.74454843 -154.03125 288.47265625 C-154.77089727 284.9796269 -155.61197768 281.52720265 -156.52033997 278.07461548 C-158.11828751 271.959951 -159.43112709 265.89775951 -160.42578125 259.66015625 C-160.68492453 258.07044013 -160.94429013 256.48076023 -161.20385742 254.89111328 C-161.33504974 254.08232727 -161.46624207 253.27354126 -161.60140991 252.44024658 C-162.24195605 248.51869766 -162.90716362 244.60137113 -163.5703125 240.68359375 C-163.95891715 238.37433816 -164.34691143 236.06498057 -164.73486328 233.75561523 C-164.99769025 232.19394936 -165.26137961 230.63242842 -165.52587891 229.07104492 C-169.73549848 204.20653369 -172.9073786 176.43177236 -165 152 C-164.55203995 150.55730514 -164.10412429 149.11459649 -163.65625 147.671875 C-160.71759168 138.43518336 -160.71759168 138.43518336 -159 135 C-158.34 135 -157.68 135 -157 135 C-156.74476563 134.28585938 -156.48953125 133.57171875 -156.2265625 132.8359375 C-152.69894683 124.67973056 -146.32984883 117.04142185 -139 112 C-138.34 112 -137.68 112 -137 112 C-137 111.34 -137 110.68 -137 110 C-134.96246024 108.56805405 -132.94713033 107.27110673 -130.8125 106 C-130.23435547 105.64421875 -129.65621094 105.2884375 -129.06054688 104.921875 C-125.78886151 102.94037968 -122.55509711 101.38480051 -119 100 C-117.32320954 99.05949253 -115.65697772 98.09998994 -114 97.125 C-108.80314095 94.23863639 -103.63686307 92.49004299 -97.93359375 90.87109375 C-95.59106647 90.17550975 -93.51104151 89.41478081 -91.3125 88.375 C-87.72139685 86.88435341 -84.34674292 86.22330951 -80.5390625 85.52734375 C-76.57050022 84.70310389 -72.82223817 83.32918663 -69 82 C-62.32757115 79.77200905 -55.6429692 78.27905077 -48.73828125 76.953125 C-41.39526822 75.51031026 -34.10451367 73.81127722 -26.80688477 72.15698242 C-16.88880301 69.92528768 -7.0707613 67.95424416 3.0625 67.0625 C12.2109078 66.20751688 21.33137201 65.17019632 30.45141602 64.05297852 C44.4204558 62.38813746 58.2162875 61.85894694 72.26827812 61.92483521 C75.06509533 61.93782036 77.86186409 61.94416878 80.65870667 61.94897461 C86.58499324 61.96028393 92.51123884 61.97955425 98.4375 62 C105.33746622 62.02369733 112.23740984 62.04402713 119.1374073 62.05593872 C121.88040913 62.0623752 124.62333921 62.074874 127.36631775 62.08764648 C129.0559788 62.09128055 130.74564048 62.09463209 132.43530273 62.09765625 C133.18713837 62.10282257 133.938974 62.10798889 134.71359253 62.11331177 C143.661514 62.4278237 143.661514 62.4278237 151.375 58.9375 C151.91125 58.298125 152.4475 57.65875 153 57 C153.66 57 154.32 57 155 57 C156.37307723 52.88076832 156.88024633 49.2903345 156 45 C154.40017926 42.63095599 152.66646082 40.72707062 150.62890625 38.7265625 C149 37 149 37 148 34 C146.00458132 33.31974363 144.00382009 32.65509503 142 32 C140.32916181 30.67189785 138.66270287 29.33827304 137 28 C134.70328155 26.86125048 132.39054045 25.93746684 130 25 C130 24.34 130 23.68 130 23 C129.12085938 22.88269531 128.24171875 22.76539062 127.3359375 22.64453125 C124.09005553 22.01739949 121.61293596 21.0701695 118.625 19.6875 C112.09422417 16.90557971 105.49963286 15.2004575 98.60449219 13.62597656 C95.66959312 12.92058837 92.76386559 12.12939603 89.8515625 11.3359375 C74.46027286 7.28158277 59.34739275 5.0062103 43.5 3.625 C42.59326538 3.54564209 41.68653076 3.46628418 40.75231934 3.38452148 C27.18491518 2.22537656 13.60499903 1.53508642 0 1 C0 0.67 0 0.34 0 0 Z " fill="#000000" transform="translate(379,0)"/>
<path d="M0 0 C114.84 0 229.68 0 348 0 C348 0.33 348 0.66 348 1 C346.33843872 1.05945801 346.33843872 1.05945801 344.64331055 1.12011719 C323.40494515 1.8996136 302.2255851 2.95089265 281.0625 4.9375 C280.20167816 5.01681763 279.34085632 5.09613525 278.45394897 5.17785645 C268.04094785 6.14755228 257.69420231 7.38770691 247.35194397 8.94468689 C240.67768111 9.94405395 233.99504507 10.66937926 227.27503967 11.28266907 C223.01789199 11.67229974 219.07471084 12.44561661 214.94848633 13.54760742 C211.82206722 14.27348822 208.69755224 14.44052583 205.5 14.625 C204.2728125 14.69976562 203.045625 14.77453125 201.78125 14.8515625 C200.8634375 14.90054687 199.945625 14.94953125 199 15 C199 15.66 199 16.32 199 17 C198.13761719 17.15855469 197.27523437 17.31710938 196.38671875 17.48046875 C180.15762373 20.5823338 164.8424351 24.72378427 149.5859375 31.1328125 C145.79660456 32.71535707 141.96718256 34.04537495 138.0625 35.31201172 C132.01089795 37.33064507 126.04482417 39.88748069 120.375 42.8125 C118 44 118 44 116 44 C115.773125 44.61359375 115.54625 45.2271875 115.3125 45.859375 C113.59342029 48.66311215 112.05569493 49.1307629 109 50.25 C108.113125 50.58515625 107.22625 50.9203125 106.3125 51.265625 C104 52 104 52 102 52 C102 52.66 102 53.32 102 54 C101.01 54 100.02 54 99 54 C99 54.66 99 55.32 99 56 C97.54462432 56.83848804 96.08559627 57.67063934 94.625 58.5 C93.81289062 58.9640625 93.00078125 59.428125 92.1640625 59.90625 C90 61 90 61 88 61 C88 61.99 88 62.98 88 64 C86.824375 64.4021875 86.824375 64.4021875 85.625 64.8125 C82.71885077 65.84814432 82.71885077 65.84814432 81 69 C79.68 69 78.36 69 77 69 C76.505 70.485 76.505 70.485 76 72 C74.35178756 73.03013277 72.68496298 74.03114628 71 75 C70.67 75.66 70.34 76.32 70 77 C69.34 77 68.68 77 68 77 C67.505 78.485 67.505 78.485 67 80 C63.55555556 83 63.55555556 83 61 83 C60.505 84.98 60.505 84.98 60 87 C59.01 87 58.02 87 57 87 C56.731875 87.5775 56.46375 88.155 56.1875 88.75 C54.97070811 91.05550043 53.69666121 93.02056192 52 95 C51.34 95 50.68 95 50 95 C49.773125 95.515625 49.54625 96.03125 49.3125 96.5625 C47.51782382 99.89547005 45.50034985 103.14703671 43 106 C42.34 106 41.68 106 41 106 C40.896875 106.5775 40.79375 107.155 40.6875 107.75 C39.89875275 110.33135463 38.64213978 111.87890278 37 114 C36.505 115.485 36.505 115.485 36 117 C35.34 117 34.68 117 34 117 C34 117.66 34 118.32 34 119 C33.34 119 32.68 119 32 119 C32 119.99 32 120.98 32 122 C31.34 122 30.68 122 30 122 C29.89816406 122.52078125 29.79632812 123.0415625 29.69140625 123.578125 C28.76928774 126.80814463 27.36563417 129.71141666 25.9375 132.75 C25.11572266 134.50570312 25.11572266 134.50570312 24.27734375 136.296875 C23.85582031 137.18890625 23.43429688 138.0809375 23 139 C22.34 139 21.68 139 21 139 C20.87367187 139.53882813 20.74734375 140.07765625 20.6171875 140.6328125 C19.89056881 143.41971708 19.02323664 146.13851163 18.125 148.875 C17.79757813 149.88304687 17.47015625 150.89109375 17.1328125 151.9296875 C16 155 16 155 14.48828125 157.921875 C12.81922483 161.37388669 11.94394104 164.64495335 11.0625 168.375 C10.72315577 169.79829627 10.38329738 171.22147004 10.04296875 172.64453125 C9.87200684 173.36721191 9.70104492 174.08989258 9.52490234 174.83447266 C9.01878755 176.92249041 8.47982074 178.99845771 7.92578125 181.07421875 C3.74789034 196.81780489 2.45412217 212.81996863 1 229 C0.67 229 0.34 229 0 229 C0 153.43 0 77.86 0 0 Z " fill="#010000" transform="translate(0,0)"/>
<path d="M0 0 C0 0.33 0 0.66 0 1 C-36.3 1 -72.6 1 -110 1 C-110 0.67 -110 0.34 -110 0 C-73.13319968 -1.9081722 -36.85299165 -2.48662626 0 0 Z " fill="#B50101" transform="translate(414,2)"/>
<path d="M0 0 C3.96 0 7.92 0 12 0 C12 0.66 12 1.32 12 2 C13.03060547 1.98259766 13.03060547 1.98259766 14.08203125 1.96484375 C14.98308594 1.95582031 15.88414062 1.94679688 16.8125 1.9375 C17.70582031 1.92589844 18.59914062 1.91429687 19.51953125 1.90234375 C22 2 22 2 25 3 C25 3.66 25 4.32 25 5 C32.81524066 5.0232496 40.6304731 5.0409791 48.44573975 5.05181217 C52.07532988 5.05701352 55.70489621 5.06406083 59.33447266 5.07543945 C62.84227734 5.08636654 66.35005924 5.0922975 69.85787964 5.09487724 C71.83633171 5.09760298 73.81477471 5.10539921 75.79321289 5.11329651 C81.97149139 5.1136788 87.88999858 4.90257378 94 4 C95.42582924 3.93190113 96.85384502 3.89044871 98.28125 3.90234375 C99.32539063 3.90717773 99.32539063 3.90717773 100.390625 3.91210938 C101.08671875 3.92048828 101.7828125 3.92886719 102.5 3.9375 C103.22703125 3.94201172 103.9540625 3.94652344 104.703125 3.95117188 C106.46878681 3.96278807 108.2344053 3.98071559 110 4 C110 4.33 110 4.66 110 5 C105.81385578 5.96385832 101.66437631 6.31474113 97.38671875 6.54296875 C96.61373947 6.58439499 95.84076019 6.62582123 95.0443573 6.66850281 C84.50469557 7.17976197 73.95733577 7.25994306 63.40698242 7.29516602 C61.01955231 7.30667913 58.6321478 7.32712012 56.24487305 7.35668945 C36.78990598 7.59608171 18.92785011 5.2641309 0 1 C0 0.67 0 0.34 0 0 Z " fill="#900102" transform="translate(214,567)"/>
<path d="M0 0 C0.33 0 0.66 0 1 0 C1 18.15 1 36.3 1 55 C-0.485 55.495 -0.485 55.495 -2 56 C-1.34 37.52 -0.68 19.04 0 0 Z " fill="#650001" transform="translate(640,285)"/>
<path d="M0 0 C3.96 0 7.92 0 12 0 C12 0.66 12 1.32 12 2 C13.03060547 1.96519531 13.03060547 1.96519531 14.08203125 1.9296875 C15.43361328 1.90261719 15.43361328 1.90261719 16.8125 1.875 C17.70582031 1.85179687 18.59914062 1.82859375 19.51953125 1.8046875 C22 2 22 2 25 4 C16.20606372 4.42781312 8.48688461 3.29967196 0 1 C0 0.67 0 0.34 0 0 Z " fill="#B00404" transform="translate(214,567)"/>
<path d="M0 0 C4.50697511 6.76046267 4.26368413 16.08947607 4 24 C-0.776653 16.8350205 -0.25359769 8.32645748 0 0 Z " fill="#A30000" transform="translate(3,257)"/>
<path d="M0 0 C-0.85464844 0.20496094 -1.70929688 0.40992188 -2.58984375 0.62109375 C-3.69457031 0.89050781 -4.79929687 1.15992188 -5.9375 1.4375 C-7.03964844 1.70433594 -8.14179688 1.97117187 -9.27734375 2.24609375 C-11.89421254 2.72995725 -11.89421254 2.72995725 -13 4 C-15.67058851 4.14115161 -18.32432238 4.04247107 -21 4 C-21 3.67 -21 3.34 -21 3 C-18.69 3 -16.38 3 -14 3 C-14 2.01 -14 1.02 -14 0 C-12.41773035 -0.19627391 -10.83410729 -0.38165538 -9.25 -0.5625 C-7.92742187 -0.71912109 -7.92742187 -0.71912109 -6.578125 -0.87890625 C-4.11567549 -0.99456676 -2.33461936 -0.73638695 0 0 Z " fill="#820101" transform="translate(372,562)"/>
<path d="M0 0 C-2.60319113 1.73546076 -4.52267237 2.65175233 -7.4375 3.625 C-8.19933594 3.88539062 -8.96117187 4.14578125 -9.74609375 4.4140625 C-12 5 -12 5 -16 5 C-16 4.34 -16 3.68 -16 3 C-15.01 3 -14.02 3 -13 3 C-13 2.34 -13 1.68 -13 1 C-8.62426048 0.40667939 -4.42471556 -0.13827236 0 0 Z " fill="#BE0203" transform="translate(313,81)"/>
<path d="M0 0 C3.63 0 7.26 0 11 0 C8.09961601 1.450192 6.03884551 2.37715911 3 3.125 C2.34 3.29257813 1.68 3.46015625 1 3.6328125 C-1 4 -1 4 -5 4 C-5 3.34 -5 2.68 -5 2 C-3.35 2 -1.7 2 0 2 C0 1.34 0 0.68 0 0 Z " fill="#C20102" transform="translate(336,73)"/>
<path d="M0 0 C0.33 0 0.66 0 1 0 C1.33848652 1.89492006 1.67056911 3.79098466 2 5.6875 C2.185625 6.74324219 2.37125 7.79898438 2.5625 8.88671875 C2.95068074 11.64904062 3.08259976 14.21742043 3 17 C2.01 16.34 1.02 15.68 0 15 C-0.22137393 12.37302936 -0.28162025 9.99106036 -0.1875 7.375 C-0.17396484 6.66859375 -0.16042969 5.9621875 -0.14648438 5.234375 C-0.1111104 3.48925872 -0.05730221 1.74453392 0 0 Z " fill="#BC0102" transform="translate(215,238)"/>
<path d="M0 0 C-3.87564767 3.61139896 -3.87564767 3.61139896 -6 5 C-8.375 4.8125 -8.375 4.8125 -10 4 C-10 3.34 -10 2.68 -10 2 C-3.375 -1.125 -3.375 -1.125 0 0 Z " fill="#C40101" transform="translate(112,50)"/>
<path d="M0 0 C1.41750563 0.11509661 2.83401169 0.24253658 4.25 0.375 C5.03890625 0.44460938 5.8278125 0.51421875 6.640625 0.5859375 C9 1 9 1 13 3 C9.04 3 5.08 3 1 3 C0.67 2.01 0.34 1.02 0 0 Z " fill="#B70101" transform="translate(459,9)"/>
<path d="M0 0 C0.66 0 1.32 0 2 0 C2.66 2.97 3.32 5.94 4 9 C3.67 8.34 3.34 7.68 3 7 C2.01 6.67 1.02 6.34 0 6 C-0.38218767 4.34385343 -0.71395102 2.67542976 -1 1 C-0.67 0.67 -0.34 0.34 0 0 Z " fill="#B40203" transform="translate(88,472)"/>
<path d="M0 0 C0.33 0 0.66 0 1 0 C1.39253254 4.44870215 0.15305957 7.14243493 -2 11 C-2.33 11 -2.66 11 -3 11 C-2.53199289 6.94393835 -2.12046792 3.53411321 0 0 Z " fill="#A30303" transform="translate(15,155)"/>
</svg>
