<?xml version="1.0" encoding="UTF-8"?>
<svg version="1.1" xmlns="http://www.w3.org/2000/svg" width="100" height="124">
<path d="M0 0 C3.20871704 2.44732655 5.30037881 4.27198969 6.3046875 8.23828125 C6.65568229 18.17781541 2.46595416 27.07084301 -1.234375 36.109375 C-0.47125 36.33625 0.291875 36.563125 1.078125 36.796875 C4.42002548 38.42896593 5.14412744 39.80052483 6.765625 43.109375 C7.12207031 45.74633789 7.12207031 45.74633789 7.09375 48.58203125 C7.08972168 49.63640381 7.08569336 50.69077637 7.08154297 51.77709961 C7.05979004 52.89737549 7.03803711 54.01765137 7.015625 55.171875 C6.99266357 56.91319702 6.99266357 56.91319702 6.96923828 58.68969727 C6.93255717 61.05140881 6.88784282 63.41300972 6.83496094 65.77441406 C6.77376835 68.71769157 6.75204021 71.6577923 6.7421875 74.6015625 C6.62320427 83.23957711 5.60893679 91.18574055 3.140625 99.484375 C2.91745605 100.26353271 2.69428711 101.04269043 2.46435547 101.84545898 C0.58322232 107.51811495 -2.21793211 110.86281135 -7.234375 114.109375 C-20.44548645 120.36374928 -40.39703773 120.73102172 -54.171875 116.484375 C-56.80859375 115.3671875 -56.80859375 115.3671875 -59.234375 114.109375 C-60.54341797 113.45582031 -60.54341797 113.45582031 -61.87890625 112.7890625 C-80.14336271 102.76688699 -85.57603789 85.42557601 -91.49755859 66.68969727 C-95.62886014 52.22192853 -94.78855321 35.47248725 -87.69140625 22.23046875 C-79.00886566 7.62711101 -66.53324073 -0.49064093 -50.234375 -4.890625 C-35.01552392 -8.37467087 -13.77510929 -8.05211703 0 0 Z M-51.234375 54.109375 C-51.234375 56.089375 -51.234375 58.069375 -51.234375 60.109375 C-50.904375 60.109375 -50.574375 60.109375 -50.234375 60.109375 C-50.234375 58.129375 -50.234375 56.149375 -50.234375 54.109375 C-50.564375 54.109375 -50.894375 54.109375 -51.234375 54.109375 Z " fill="#3C59FA" transform="translate(93.234375,5.890625)"/>
<path d="M0 0 C3.20871704 2.44732655 5.30037881 4.27198969 6.3046875 8.23828125 C6.65568229 18.17781541 2.46595416 27.07084301 -1.234375 36.109375 C-0.47125 36.33625 0.291875 36.563125 1.078125 36.796875 C4.42002548 38.42896593 5.14412744 39.80052483 6.765625 43.109375 C7.12207031 45.74633789 7.12207031 45.74633789 7.09375 48.58203125 C7.08972168 49.63640381 7.08569336 50.69077637 7.08154297 51.77709961 C7.05979004 52.89737549 7.03803711 54.01765137 7.015625 55.171875 C6.99266357 56.91319702 6.99266357 56.91319702 6.96923828 58.68969727 C6.93255717 61.05140881 6.88784282 63.41300972 6.83496094 65.77441406 C6.77376835 68.71769157 6.75204021 71.6577923 6.7421875 74.6015625 C6.62320427 83.23957711 5.60893679 91.18574055 3.140625 99.484375 C2.91745605 100.26353271 2.69428711 101.04269043 2.46435547 101.84545898 C0.58322232 107.51811495 -2.21793211 110.86281135 -7.234375 114.109375 C-20.44548645 120.36374928 -40.39703773 120.73102172 -54.171875 116.484375 C-56.80859375 115.3671875 -56.80859375 115.3671875 -59.234375 114.109375 C-60.54341797 113.45582031 -60.54341797 113.45582031 -61.87890625 112.7890625 C-80.14336271 102.76688699 -85.57603789 85.42557601 -91.49755859 66.68969727 C-95.62886014 52.22192853 -94.78855321 35.47248725 -87.69140625 22.23046875 C-79.00886566 7.62711101 -66.53324073 -0.49064093 -50.234375 -4.890625 C-35.01552392 -8.37467087 -13.77510929 -8.05211703 0 0 Z M-76.109375 17.42578125 C-86.20009965 30.16903094 -87.42478527 43.42396906 -86.234375 59.109375 C-84.02609539 72.22682033 -76.99848758 83.33726082 -66.234375 91.109375 C-51.31685113 100.50643362 -32.13803222 101.60369207 -15.18652344 97.81860352 C-8.13788373 96.11068106 -8.13788373 96.11068106 -2.234375 92.109375 C-1.33903953 89.42336858 -1.05214886 87.59282977 -0.91796875 84.8125 C-0.87559082 83.94665283 -0.83321289 83.08080566 -0.78955078 82.1887207 C-0.5805205 77.16288687 -0.39844065 72.13687037 -0.234375 67.109375 C-0.1936084 66.04090332 -0.1528418 64.97243164 -0.11083984 63.87158203 C0.00116196 60.72170991 0.07616704 57.57304169 0.140625 54.421875 C0.17873291 53.43670898 0.21684082 52.45154297 0.25610352 51.43652344 C0.26697998 50.52032227 0.27785645 49.60412109 0.2890625 48.66015625 C0.30888184 47.85231689 0.32870117 47.04447754 0.34912109 46.2121582 C-0.07924937 43.916107 -0.07924937 43.916107 -2.26464844 42.34985352 C-5.97957424 40.79809932 -9.31455866 40.67802099 -13.2734375 40.7109375 C-14.03610931 40.70806732 -14.79878113 40.70519714 -15.58456421 40.70223999 C-17.18984728 40.70020578 -18.79515549 40.7056906 -20.40039062 40.71826172 C-22.85863382 40.73437014 -25.31524412 40.71836968 -27.7734375 40.69921875 C-29.33594113 40.70120043 -30.89844374 40.70504255 -32.4609375 40.7109375 C-33.19535065 40.70486481 -33.92976379 40.69879211 -34.68643188 40.6925354 C-37.61612371 40.73301779 -39.71758151 40.76366508 -42.19311523 42.41967773 C-43.94306071 45.25938995 -43.70594927 48.31601506 -43.671875 51.546875 C-43.69121094 52.86558594 -43.71054687 54.18429688 -43.73046875 55.54296875 C-43.4952456 59.09150126 -43.4952456 59.09150126 -41.62890625 61.56640625 C-38.42495293 63.63094387 -36.26359725 63.51054389 -32.484375 63.359375 C-29.390625 63.235625 -29.390625 63.235625 -26.234375 63.109375 C-26.234375 67.399375 -26.234375 71.689375 -26.234375 76.109375 C-36.32914452 75.96131838 -44.77387165 75.50616351 -52.84765625 68.76171875 C-58.73511565 62.52691661 -59.81641078 54.26667427 -59.5859375 46.04296875 C-58.74275688 39.00709492 -55.73952508 33.59031111 -50.234375 29.109375 C-42.32900424 23.74826149 -34.57158232 23.45718357 -25.234375 24.109375 C-22.57052408 24.74309887 -20.04294218 25.54679528 -17.453125 26.4296875 C-13.39351509 27.6733004 -9.87911321 27.84036976 -5.984375 26.109375 C-2.42209501 22.03819787 -1.07652855 17.14674889 -0.859375 11.796875 C-0.88399206 8.24543098 -0.88399206 8.24543098 -2.5390625 6.4765625 C-22.27815968 -9.44206426 -60.92662878 1.01942555 -76.109375 17.42578125 Z M-51.234375 54.109375 C-51.234375 56.089375 -51.234375 58.069375 -51.234375 60.109375 C-50.904375 60.109375 -50.574375 60.109375 -50.234375 60.109375 C-50.234375 58.129375 -50.234375 56.149375 -50.234375 54.109375 C-50.564375 54.109375 -50.894375 54.109375 -51.234375 54.109375 Z " fill="#F5F7FE" transform="translate(93.234375,5.890625)"/>
<path d="M0 0 C-0.50712033 3.71888239 -1.11608215 6.73454239 -3 10 C-3.66902344 9.7834375 -4.33804688 9.566875 -5.02734375 9.34375 C-17.97808845 5.58890322 -32.21390129 4.94148521 -44.42578125 11.25390625 C-51.16475209 15.30170052 -54.41137895 20.06627167 -57.3125 27.25 C-59.23477003 37.73510924 -58.40601024 48.58941743 -53.328125 58.08203125 C-49.17471712 64.08004086 -42.76843668 68.85245682 -35.65551758 70.56420898 C-32.94846878 71.00845667 -30.44063734 71.11368794 -27.69921875 71.09765625 C-26.37796997 71.09390991 -26.37796997 71.09390991 -25.0300293 71.09008789 C-23.92699463 71.08098389 -22.82395996 71.07187988 -21.6875 71.0625 C-18.160625 71.041875 -14.63375 71.02125 -11 71 C-11 62.75 -11 54.5 -11 46 C-16.61 46 -22.22 46 -28 46 C-28 43.03 -28 40.06 -28 37 C-18.43 37 -8.86 37 1 37 C1.07461016 50.72826881 1.14191105 64.31745872 0 78 C-8.44256151 80.49568963 -16.21080007 81.49491164 -25 81.4375 C-26.08539063 81.45748047 -27.17078125 81.47746094 -28.2890625 81.49804688 C-41.56168719 81.49012765 -51.16808987 77.42064545 -60.7109375 68.37890625 C-70.19945978 58.33648546 -71.59732944 45.72627601 -71.33203125 32.5546875 C-70.83254623 22.61842985 -66.26121159 15.22126421 -59.45703125 8.19140625 C-42.76935202 -6.69219955 -20.17009198 -6.57656565 0 0 Z " fill="#FCE655" transform="translate(85,17)"/>
<path d="M0 0 C2 2 2 2 2.375 5.5625 C2.25772753 10.49696454 0.59052824 14.82396451 -2 19 C-5.81008078 21.54005385 -7.45098172 21.3610332 -12 21 C-15.38524596 20.14628637 -18.69332367 19.11774975 -22 18 C-21.67 17.34 -21.34 16.68 -21 16 C-20.35933594 16.15597656 -19.71867187 16.31195312 -19.05859375 16.47265625 C-13.62765637 17.6948195 -9.44944639 18.18466226 -4 17 C-2.24252386 12.49646738 -1.80705592 8.82360189 -2 4 C-3.65 3.67 -5.3 3.34 -7 3 C-7 3.66 -7 4.32 -7 5 C-8.11181641 4.67515625 -8.11181641 4.67515625 -9.24609375 4.34375 C-25.25913123 0.11019297 -41.78834432 0.46051024 -56.62109375 8.5078125 C-66.29694198 14.57706377 -71.40226106 22.20678317 -75 33 C-75.12365396 35.90730598 -75.18514971 38.78019458 -75.1875 41.6875 C-75.19974609 42.46544922 -75.21199219 43.24339844 -75.22460938 44.04492188 C-75.24309379 51.43252511 -73.58952885 57.75848727 -71 64.6875 C-70.67 65.57824219 -70.34 66.46898438 -70 67.38671875 C-69.505 68.68029297 -69.505 68.68029297 -69 70 C-68.69707031 70.85851562 -68.39414063 71.71703125 -68.08203125 72.6015625 C-65.88554052 77.47031812 -61.81082678 81.11385072 -57.0625 83.4375 C-56.0415625 83.7159375 -56.0415625 83.7159375 -55 84 C-55 84.66 -55 85.32 -55 86 C-53.58398286 86.48108275 -52.16715563 86.95978141 -50.75 87.4375 C-49.96109375 87.70433594 -49.1721875 87.97117187 -48.359375 88.24609375 C-47.58078125 88.49488281 -46.8021875 88.74367188 -46 89 C-45.44376953 89.17853516 -44.88753906 89.35707031 -44.31445312 89.54101562 C-41.05907129 90.18659768 -37.92669385 90.11082021 -34.609375 90.09765625 C-33.90476135 90.0962413 -33.20014771 90.09482635 -32.47418213 90.09336853 C-30.23274416 90.08778933 -27.99140757 90.07524073 -25.75 90.0625 C-24.22656395 90.05748231 -22.70312632 90.05291987 -21.1796875 90.04882812 C-17.45309228 90.03782674 -13.72655604 90.02057646 -10 90 C-10 90.33 -10 90.66 -10 91 C-28.24665881 95.65001499 -47.21287194 94.25725932 -63.6015625 84.62109375 C-73.31376685 78.05665595 -79.15273359 68.05880497 -82.3046875 56.89453125 C-84.88149187 42.46153149 -84.02618297 28.91161613 -76.25 16.3125 C-67.59893219 4.29950732 -56.12202885 -2.70469921 -41.546875 -5.56640625 C-27.41802764 -7.29361116 -12.8861938 -6.58627683 0 0 Z " fill="#405CFA" transform="translate(90,12)"/>
<path d="M0 0 C9.57 0 19.14 0 29 0 C29.07461016 13.72826881 29.14191105 27.31745872 28 41 C19.55743849 43.49568963 11.78919993 44.49491164 3 44.4375 C1.37191406 44.4674707 1.37191406 44.4674707 -0.2890625 44.49804688 C-13.52551426 44.49014923 -23.44787147 40.47092285 -32.81640625 31.203125 C-36.01734836 27.71679769 -37.85744194 24.68448805 -39 20 C-38.34 20 -37.68 20 -37 20 C-36.34 21.32 -35.68 22.64 -35 24 C-32.36 24 -29.72 24 -27 24 C-27.33 23.01 -27.66 22.02 -28 21 C-27.01 21 -26.02 21 -25 21 C-23.45703125 22.609375 -23.45703125 22.609375 -21.8125 24.75 C-17.1191718 30.35619541 -12.13737493 32.77942971 -5 34 C-3.23447202 34.07747197 -1.46641544 34.10799073 0.30078125 34.09765625 C1.18161377 34.09515869 2.06244629 34.09266113 2.9699707 34.09008789 C4.07300537 34.08098389 5.17604004 34.07187988 6.3125 34.0625 C9.839375 34.041875 13.36625 34.02125 17 34 C17 25.75 17 17.5 17 9 C11.39 9 5.78 9 0 9 C0 6.03 0 3.06 0 0 Z " fill="#F6D75B" transform="translate(57,54)"/>
<path d="M0 0 C3.72256913 4.58162355 3.72256913 4.58162355 5.21484375 6.83203125 C12.50265188 17.54194058 24.64787386 24.57831184 37.14453125 27.4609375 C53.4951313 29.74703963 73.48244211 29.71053474 88 21 C88.99 20.505 88.99 20.505 90 20 C88.51536023 28.01705475 86.84901941 33.07216416 80 38 C66.41828364 43.94658932 47.13935879 44.71475699 33.0625 40.375 C30.42578125 39.2578125 30.42578125 39.2578125 28 38 C27.12730469 37.56429687 26.25460938 37.12859375 25.35546875 36.6796875 C12.70981744 29.74069443 4.6699025 18.53735115 0.41015625 4.83984375 C0 3 0 3 0 0 Z " fill="#2A50FF" transform="translate(6,82)"/>
<path d="M0 0 C0.99 0.33 1.98 0.66 3 1 C3.07421905 6.19609458 3.12863446 11.39187983 3.16479492 16.58837891 C3.17987102 18.35568619 3.20033522 20.12295614 3.22631836 21.89013672 C3.26275402 24.43205995 3.27973794 26.97348806 3.29296875 29.515625 C3.30845261 30.30430969 3.32393646 31.09299438 3.33988953 31.90557861 C3.34087341 35.12073288 3.22305553 37.56109556 1.75317383 40.45336914 C-4.32061657 45.81160089 -15.9520204 44.33348993 -23.5 44.3125 C-25.23830078 44.33666992 -25.23830078 44.33666992 -27.01171875 44.36132812 C-34.18378435 44.36538014 -40.27653064 43.53280067 -47 41 C-47 40.34 -47 39.68 -47 39 C-47.763125 38.855625 -48.52625 38.71125 -49.3125 38.5625 C-52 38 -52 38 -55 37 C-55 36.34 -55 35.68 -55 35 C-56.32 34.34 -57.64 33.68 -59 33 C-59 32.01 -59 31.02 -59 30 C-58.39414062 30.47050781 -57.78828125 30.94101563 -57.1640625 31.42578125 C-56.32617188 32.04839844 -55.48828125 32.67101562 -54.625 33.3125 C-53.81289063 33.92738281 -53.00078125 34.54226562 -52.1640625 35.17578125 C-43.82299319 39.98476812 -35.58502595 40.45080447 -26.125 40.3125 C-24.48337891 40.31733398 -24.48337891 40.31733398 -22.80859375 40.32226562 C-15.36763022 40.27383332 -8.29717842 39.43852073 -1 38 C-1.01160156 37.10023437 -1.02320313 36.20046875 -1.03515625 35.2734375 C-1.1177918 23.49196914 -0.61162413 11.76400456 0 0 Z " fill="#2C3EA5" transform="translate(86,57)"/>
<path d="M0 0 C1.66578767 -0.08267696 3.33284036 -0.13993159 5 -0.1875 C5.928125 -0.22230469 6.85625 -0.25710937 7.8125 -0.29296875 C11 0 11 0 14.671875 1.49609375 C19.81197355 3.56179225 24.78072288 3.36698989 30.25 3.25 C31.2296875 3.24484375 32.209375 3.2396875 33.21875 3.234375 C37.3158719 3.18959771 41.04225365 3.13959344 45 2 C45 1.34 45 0.68 45 0 C46.98 0 48.96 0 51 0 C51 1.98 51 3.96 51 6 C38.64041407 11.79355591 20.22015384 10.54388835 7.62890625 6.16796875 C4.91345237 4.96154868 2.44544588 3.69095259 0 2 C0 1.34 0 0.68 0 0 Z " fill="#FE9D3E" transform="translate(31,87)"/>
<path d="M0 0 C0.66 0 1.32 0 2 0 C1.25 6.75 1.25 6.75 -1 9 C-4.97136481 9.32419305 -8.41946636 8.96279122 -12.25 8 C-22.59864532 5.56605465 -34.69735769 6.50019608 -44 12 C-45.35386936 13.65002828 -46.68678142 15.3174387 -48 17 C-48.66539795 17.45584473 -49.3307959 17.91168945 -50.01635742 18.38134766 C-53.61973413 21.32170305 -54.16211812 25.57822409 -55 30 C-55.31363796 33.88911073 -55.28898769 37.72683164 -55.1875 41.625 C-55.17396484 42.62917969 -55.16042969 43.63335937 -55.14648438 44.66796875 C-55.11156152 47.11256864 -55.06252748 49.55597734 -55 52 C-59.22392089 47.77607911 -59.1666839 40.838813 -59.375 35.125 C-59.20541032 26.80450655 -56.77268031 18.72244202 -50.97265625 12.56640625 C-40.21766281 4.02630255 -28.17367681 3.03345306 -15 4 C-10.89672771 4.72909384 -6.96341134 5.71704604 -3 7 C-2.01 4.69 -1.02 2.38 0 0 Z " fill="#25379D" transform="translate(85,19)"/>
<path d="M0 0 C1 2 1 2 0.44140625 3.9453125 C0.15136719 4.66460937 -0.13867188 5.38390625 -0.4375 6.125 C-0.86869141 7.21167969 -0.86869141 7.21167969 -1.30859375 8.3203125 C-1.53675781 8.87460937 -1.76492187 9.42890625 -2 10 C-3.25006836 9.75987183 -3.25006836 9.75987183 -4.52539062 9.51489258 C-10.39459185 8.64515218 -16.30019077 8.73621803 -22.22216797 8.70483398 C-23.74081716 8.69327728 -25.25942457 8.67276733 -26.77783203 8.64331055 C-28.98758145 8.60053041 -31.19613744 8.58445772 -33.40625 8.57421875 C-34.71916016 8.55963623 -36.03207031 8.54505371 -37.38476562 8.5300293 C-42.48167677 9.19261398 -45.64513823 11.27482894 -48.80078125 15.29296875 C-50.2828903 18.63857647 -50.74667866 21.68420125 -51.1875 25.3125 C-51.34605469 26.56675781 -51.50460938 27.82101563 -51.66796875 29.11328125 C-51.77753906 30.06589844 -51.88710938 31.01851562 -52 32 C-54.80652431 29.19347569 -54.36616611 27.29416805 -54.4375 23.375 C-54.33453255 15.65244114 -52.48707721 11.48707721 -47.125 6.125 C-37.84992139 1.21466427 -28.3434074 2.40947778 -18.640625 5.3203125 C-13.48976836 6.64612471 -8.9509674 6.87170884 -4.0625 4.6875 C-1.78127739 2.98902321 -1.78127739 2.98902321 0 0 Z " fill="#51A1FF" transform="translate(94,32)"/>
<path d="M0 0 C4.37823917 -0.04938149 8.75633146 -0.0857104 13.13476562 -0.10986328 C14.6247032 -0.11993043 16.11462097 -0.13358518 17.60449219 -0.15087891 C19.74419028 -0.17509653 21.88362753 -0.18647564 24.0234375 -0.1953125 C25.31169434 -0.20578613 26.59995117 -0.21625977 27.92724609 -0.22705078 C31 0 31 0 33 2 C33.3053894 3.85276794 33.3053894 3.85276794 33.38232422 6.12670898 C33.4314949 7.40329628 33.4314949 7.40329628 33.48165894 8.70567322 C33.51780807 10.08693138 33.51780807 10.08693138 33.5546875 11.49609375 C33.58354034 12.44057877 33.61239319 13.38506378 33.64212036 14.35816956 C33.69923874 16.35785974 33.75100138 18.35770892 33.79785156 20.35766602 C33.8746235 23.42246996 33.98340653 26.48507277 34.09375 29.54882812 C34.1451993 31.4895321 34.19474211 33.43028776 34.2421875 35.37109375 C34.29655472 36.74931557 34.29655472 36.74931557 34.35202026 38.15538025 C34.45489753 44.49241797 34.45489753 44.49241797 32.17236328 47.03930664 C19.99858427 52.42296818 -3.29359259 52.59210269 -15.75 48.0625 C-17.1859798 47.41630909 -18.60984172 46.73963549 -20 46 C-20.66 45.67 -21.32 45.34 -22 45 C-22 44.34 -22 43.68 -22 43 C-22.72703125 42.92136719 -23.4540625 42.84273437 -24.203125 42.76171875 C-27.68399509 41.81371642 -29.2130696 40.353687 -31.75 37.8125 C-32.52859375 37.05582031 -33.3071875 36.29914063 -34.109375 35.51953125 C-36.28201234 32.62417777 -36.69023788 30.5674271 -37 27 C-33.3975882 30.40227781 -30.71972862 33.8735152 -28 38 C-27.34 38.33 -26.68 38.66 -26 39 C-26 39.66 -26 40.32 -26 41 C-25.236875 41.144375 -24.47375 41.28875 -23.6875 41.4375 C-21 42 -21 42 -18 43 C-18 43.66 -18 44.32 -18 45 C-16.906875 45.144375 -15.81375 45.28875 -14.6875 45.4375 C-11 46 -11 46 -8 47 C-3.64985344 47.2375275 0.7065711 47.18519406 5.0625 47.1875 C6.25294922 47.19974609 7.44339844 47.21199219 8.66992188 47.22460938 C19.00839411 47.33961582 19.00839411 47.33961582 29 45 C31.55781522 41.16327717 31.25306456 38.05464013 31.1953125 33.61328125 C31.19106766 32.38776802 31.19106766 32.38776802 31.18673706 31.13749695 C31.17554541 28.52901541 31.1504429 25.9208777 31.125 23.3125 C31.11496888 21.54362475 31.10584326 19.77474412 31.09765625 18.00585938 C31.07560942 13.67044051 31.0410867 9.33527855 31 5 C30.01 4.505 30.01 4.505 29 4 C29 3.01 29 2.02 29 1 C19.43 1 9.86 1 0 1 C0 0.67 0 0.34 0 0 Z " fill="#4057E5" transform="translate(57,53)"/>
<path d="M0 0 C8.25 0 16.5 0 25 0 C25.020625 2.92875 25.04125 5.8575 25.0625 8.875 C25.071604 9.79651855 25.08070801 10.71803711 25.09008789 11.66748047 C25.09258545 12.39338379 25.09508301 13.11928711 25.09765625 13.8671875 C25.10551147 14.98262939 25.10551147 14.98262939 25.11352539 16.12060547 C25 18 25 18 24 20 C22.02 20 20.04 20 18 20 C17.67 15.38 17.34 10.76 17 6 C11.39 5.67 5.78 5.34 0 5 C0 3.35 0 1.7 0 0 Z " fill="#FDFC6A" transform="translate(59,56)"/>
<path d="M0 0 C9.57 0 19.14 0 29 0 C29 8.25 29 16.5 29 25 C28.67 25 28.34 25 28 25 C27.505 13.615 27.505 13.615 27 2 C18.75 2 10.5 2 2 2 C2 3.65 2 5.3 2 7 C7.28 7 12.56 7 18 7 C18 14.59 18 22.18 18 30 C17.67 30 17.34 30 17 30 C17 23.07 17 16.14 17 9 C11.39 9 5.78 9 0 9 C0 6.03 0 3.06 0 0 Z " fill="#E2CA68" transform="translate(57,54)"/>
<path d="M0 0 C0.33 0.66 0.66 1.32 1 2 C0.29541627 3.69740625 -0.41444074 5.39451463 -1.2109375 7.05078125 C-4.97069223 16.33849219 -3.64346311 27.17562608 -0.29296875 36.33203125 C1.57069282 40.17759273 4.12759064 42.86038977 7 46 C6.67 46.99 6.34 47.98 6 49 C4.72486237 47.92173635 3.45507431 46.83714481 2.1875 45.75 C1.47980469 45.14671875 0.77210937 44.5434375 0.04296875 43.921875 C-5.24821627 38.94431662 -5.9428393 34.70972674 -6.203125 27.609375 C-6.53226409 6.85025381 -6.53226409 6.85025381 -1.39453125 1.25 C-0.93433594 0.8375 -0.47414063 0.425 0 0 Z " fill="#3550E6" transform="translate(35,36)"/>
<path d="M0 0 C13.2 0 26.4 0 40 0 C34.58147756 5.41852244 23.96292407 4.20646122 16.75 4.25 C15.47310303 4.26377686 15.47310303 4.26377686 14.17041016 4.27783203 C9.0661028 4.25289404 4.83561204 3.64672194 0 2 C0 1.34 0 0.68 0 0 Z " fill="#FF8D35" transform="translate(42,92)"/>
<path d="M0 0 C2.475 0.495 2.475 0.495 5 1 C5.87711199 4.90713521 6.29820783 8.07479161 5 11.875 C3 15 3 15 -0.5 16 C-4 16 -4 16 -7 15 C-7 14.34 -7 13.68 -7 13 C-10.64555558 12.88244519 -14.29061474 12.81230188 -17.9375 12.75 C-18.95908203 12.71648438 -19.98066406 12.68296875 -21.03320312 12.6484375 C-27.22161111 12.56935241 -31.62696672 13.18822305 -37.06469727 16.23144531 C-39.44550983 17.17692254 -40.6269511 16.84077894 -43 16 C-34.11295488 10.2314998 -22.94138701 8.51337235 -12.55859375 10.45703125 C-11.06144903 10.80915158 -9.56645129 11.17058038 -8.07421875 11.54296875 C-4.96798439 12.22739327 -2.15584859 12.32202537 1 12 C2.9451 9.08235 3.45276317 7.37462715 4 4 C3.34 4 2.68 4 2 4 C2 3.34 2 2.68 2 2 C1.34 2 0.68 2 0 2 C0 1.34 0 0.68 0 0 Z " fill="#3048D1" transform="translate(83,15)"/>
<path d="M0 0 C3.6024118 3.40227781 6.28027138 6.8735152 9 11 C9.66 11.33 10.32 11.66 11 12 C11 12.66 11 13.32 11 14 C11.763125 14.144375 12.52625 14.28875 13.3125 14.4375 C16 15 16 15 19 16 C19 16.66 19 17.32 19 18 C20.6396875 18.2165625 20.6396875 18.2165625 22.3125 18.4375 C26 19 26 19 29 20 C30.62567079 20.14715199 32.25586857 20.24721867 33.88671875 20.31640625 C35.2934082 20.37924805 35.2934082 20.37924805 36.72851562 20.44335938 C37.70498047 20.48267578 38.68144531 20.52199219 39.6875 20.5625 C40.67556641 20.60568359 41.66363281 20.64886719 42.68164062 20.69335938 C45.12095546 20.79941654 47.56037113 20.90147714 50 21 C50 21.66 50 22.32 50 23 C26.06578256 23.82346123 26.06578256 23.82346123 17 19 C16.34 18.67 15.68 18.34 15 18 C15 17.34 15 16.68 15 16 C13.90945312 15.88205078 13.90945312 15.88205078 12.796875 15.76171875 C9.31600491 14.81371642 7.7869304 13.353687 5.25 10.8125 C4.47140625 10.05582031 3.6928125 9.29914063 2.890625 8.51953125 C0.71798766 5.62417777 0.30976212 3.5674271 0 0 Z " fill="#364FDE" transform="translate(20,80)"/>
<path d="M0 0 C0.99 0.495 0.99 0.495 2 1 C2 5.62 2 10.24 2 15 C3.98 15 5.96 15 8 15 C8.33 10.05 8.66 5.1 9 0 C9.33 0 9.66 0 10 0 C10.02908633 4.22915217 10.04682792 8.45827852 10.0625 12.6875 C10.07087891 13.88568359 10.07925781 15.08386719 10.08789062 16.31835938 C10.09111328 17.47529297 10.09433594 18.63222656 10.09765625 19.82421875 C10.10289307 20.88729248 10.10812988 21.95036621 10.11352539 23.0456543 C10.00716844 25.8134509 9.62894788 28.30792897 9 31 C8.67 31 8.34 31 8 31 C8 27.37 8 23.74 8 20 C5.69 20 3.38 20 1 20 C0.67 21.32 0.34 22.64 0 24 C0 16.08 0 8.16 0 0 Z " fill="#FDE058" transform="translate(75,61)"/>
<path d="M0 0 C0.66 0 1.32 0 2 0 C1.25 6.75 1.25 6.75 -1 9 C-4.97136481 9.32419305 -8.41946636 8.96279122 -12.25 8 C-18.96676521 6.39804577 -25.75360926 6.23623246 -32.4375 8.0625 C-35.87065774 8.96596256 -36.81395751 9.00132764 -40 8 C-31.49956505 2.21246982 -21.01676234 2.9088773 -11.23046875 4.68359375 C-8.45122902 5.3726342 -5.72359297 6.11837453 -3 7 C-2.01 4.69 -1.02 2.38 0 0 Z " fill="#20318C" transform="translate(85,19)"/>
<path d="M0 0 C0.66 0 1.32 0 2 0 C2.02471455 4.9296024 2.04286691 9.85916874 2.05493164 14.78881836 C2.05996113 16.46590808 2.06678548 18.14299342 2.07543945 19.82006836 C2.08756559 22.230317 2.09324215 24.64050768 2.09765625 27.05078125 C2.10281754 27.80087967 2.10797882 28.55097809 2.11329651 29.32380676 C2.11363785 32.48951232 2.00887343 34.97337972 1 38 C0.34 38 -0.32 38 -1 38 C-1.1637024 25.30396924 -0.65910557 12.67726462 0 0 Z " fill="#22328C" transform="translate(86,57)"/>
<path d="M0 0 C0.73790771 -0.00515625 1.47581543 -0.0103125 2.23608398 -0.015625 C5.99276478 0.03302204 7.74023492 0.18098994 10.9375 2.3125 C9.33158287 3.91841713 7.56555322 3.49671495 5.34375 3.55859375 C3.920625 3.60790039 3.920625 3.60790039 2.46875 3.65820312 C0.47925402 3.71845204 -1.51033112 3.77583848 -3.5 3.83007812 C-9.60579077 4.04755589 -15.13921787 4.801084 -21.0625 6.3125 C-21.0625 5.3225 -21.0625 4.3325 -21.0625 3.3125 C-14.02063169 1.0330513 -7.3672917 0.01259501 0 0 Z " fill="#E7CD72" transform="translate(62.0625,12.6875)"/>
<path d="M0 0 C0 0.99 0 1.98 0 3 C-0.589021 2.98952637 -1.17804199 2.97905273 -1.78491211 2.96826172 C-4.50239646 2.92620446 -7.21981196 2.9005182 -9.9375 2.875 C-10.86369141 2.85824219 -11.78988281 2.84148438 -12.74414062 2.82421875 C-18.81872962 2.78159006 -24.11835079 3.46775498 -30 5 C-29 2 -29 2 -27.375 0.875 C-18.89288653 -2.24998917 -8.78200723 -1.56124573 0 0 Z " fill="#F2D454" transform="translate(74,21)"/>
<path d="M0 0 C2.31 0 4.62 0 7 0 C7.33 1.98 7.66 3.96 8 6 C8.33 6 8.66 6 9 6 C9 8.64 9 11.28 9 14 C5.7 14.66 2.4 15.32 -1 16 C-0.34 15.67 0.32 15.34 1 15 C1 14.34 1 13.68 1 13 C2.65 12.67 4.3 12.34 6 12 C6 10.02 6 8.04 6 6 C4.02 6 2.04 6 0 6 C0 4.02 0 2.04 0 0 Z " fill="#FEC150" transform="translate(76,81)"/>
<path d="M0 0 C9.68191758 -0.8610401 9.68191758 -0.8610401 13.625 2.4375 C16 5 16 5 16 6 C12.60634446 6.79811267 9.48547038 7.32157614 6 7 C3.38289614 5.04739517 1.69886913 2.76929481 0 0 Z " fill="#FEB44A" transform="translate(24,81)"/>
<path d="M0 0 C5.28 0 10.56 0 16 0 C16 1.32 16 2.64 16 4 C11.05 4 6.1 4 1 4 C0.67 2.68 0.34 1.36 0 0 Z " fill="#2A3FB5" transform="translate(58,63)"/>
<path d="M0 0 C0.54527344 0.38671875 1.09054688 0.7734375 1.65234375 1.171875 C6.90592714 4.79999071 12.09905521 7.5903583 18 10 C19.35498831 10.58142224 20.70923296 11.16458267 22.0625 11.75 C23.5165625 12.36875 23.5165625 12.36875 25 13 C19.43712967 15.00844725 14.13885527 12.26468903 9 10 C5.71481246 7.96806773 2.62171672 5.85343411 0 3 C0 2.01 0 1.02 0 0 Z " fill="#F3D55C" transform="translate(26,84)"/>
<path d="M0 0 C-1.22976562 0.45439453 -1.22976562 0.45439453 -2.484375 0.91796875 C-4.10085937 1.54638672 -4.10085937 1.54638672 -5.75 2.1875 C-6.81734375 2.59355469 -7.8846875 2.99960937 -8.984375 3.41796875 C-12.34102891 5.17890765 -13.78035728 6.97669354 -16 10 C-17.95851344 11.39355764 -19.95127113 12.74282547 -22 14 C-20.60265108 8.72112631 -17.34388811 5.9997416 -13 3 C-4.74820385 -1.63989885 -4.74820385 -1.63989885 0 0 Z " fill="#252E68" transform="translate(52,25)"/>
<path d="M0 0 C0.66 0 1.32 0 2 0 C1.25 6.75 1.25 6.75 -1 9 C-6.60317836 9.45740231 -11.61328355 8.36805497 -17 7 C-17 6.67 -17 6.34 -17 6 C-15.22925083 5.97294271 -13.45838289 5.95357805 -11.6875 5.9375 C-10.70136719 5.92589844 -9.71523437 5.91429687 -8.69921875 5.90234375 C-6 6 -6 6 -3 7 C-2.01 4.69 -1.02 2.38 0 0 Z " fill="#293CA6" transform="translate(85,19)"/>
<path d="M0 0 C1.65 0.33 3.3 0.66 5 1 C5.87711199 4.90713521 6.29820783 8.07479161 5 11.875 C3 15 3 15 -0.5 16.0625 C-4 16 -4 16 -7 14 C-2.545 13.505 -2.545 13.505 2 13 C2.66 10.03 3.32 7.06 4 4 C3.34 4 2.68 4 2 4 C2 3.34 2 2.68 2 2 C1.34 2 0.68 2 0 2 C0 1.34 0 0.68 0 0 Z " fill="#3550E3" transform="translate(83,15)"/>
<path d="M0 0 C1.20460211 3.61380633 0.69608056 4.54362032 -0.6875 8 C-1.02136719 8.86625 -1.35523437 9.7325 -1.69921875 10.625 C-3.12763315 13.2330359 -4.51836864 14.41175593 -7 16 C-6.85175781 15.43410156 -6.70351562 14.86820313 -6.55078125 14.28515625 C-6.18865006 12.78269704 -5.8719439 11.26843198 -5.60546875 9.74609375 C-4.46597839 3.45227314 -4.46597839 3.45227314 -1.875 0.9375 C-0.946875 0.4734375 -0.946875 0.4734375 0 0 Z " fill="#3C79FF" transform="translate(95,102)"/>
<path d="M0 0 C0.33 0 0.66 0 1 0 C2.33333333 5.33333333 3.66666667 10.66666667 5 16 C5.66 16 6.32 16 7 16 C8.35386936 17.65002828 9.68678142 19.3174387 11 21 C11.66 21.33 12.32 21.66 13 22 C12.67 22.66 12.34 23.32 12 24 C10.72486237 22.92173635 9.45507431 21.83714481 8.1875 20.75 C7.47980469 20.14671875 6.77210937 19.5434375 6.04296875 18.921875 C1.68042139 14.81791075 0.61585602 12.3171203 0.3125 6.25 C0.24675781 5.07953125 0.18101563 3.9090625 0.11328125 2.703125 C0.07589844 1.81109375 0.03851562 0.9190625 0 0 Z " fill="#3447B5" transform="translate(29,61)"/>
<path d="M0 0 C0.66 0.33 1.32 0.66 2 1 C2 2.32 2 3.64 2 5 C-2.00438221 7.8202907 -6.12336539 7.00863471 -10.75 6.625 C-11.54277344 6.56828125 -12.33554687 6.5115625 -13.15234375 6.453125 C-15.10231735 6.31216305 -17.05128671 6.1574288 -19 6 C-19 5.67 -19 5.34 -19 5 C-12.73 4.67 -6.46 4.34 0 4 C0 2.68 0 1.36 0 0 Z " fill="#F1D46A" transform="translate(74,84)"/>
<path d="M0 0 C0.33 0.66 0.66 1.32 1 2 C0.04503804 4.3646677 -0.95390981 6.6769922 -2 9 C-4.10488711 14.26221778 -4.57921297 19.39688846 -5 25 C-5.33 25 -5.66 25 -6 25 C-6.82421358 7.23361844 -6.82421358 7.23361844 -1.39453125 1.22265625 C-0.93433594 0.81917969 -0.47414063 0.41570313 0 0 Z " fill="#314AD4" transform="translate(35,36)"/>
<path d="M0 0 C0.66 0.33 1.32 0.66 2 1 C1.74605469 1.54527344 1.49210937 2.09054688 1.23046875 2.65234375 C-1.21329843 8.00666511 -3.2470556 13.38260998 -5 19 C-5.33 19 -5.66 19 -6 19 C-5.64134677 11.58783319 -3.64079463 6.43520528 0 0 Z " fill="#EED66F" transform="translate(20,32)"/>
<path d="M0 0 C0.33 0 0.66 0 1 0 C1.23228738 4.7618912 0.33407626 8.44844571 -1 13 C-1.4260669 15.66408866 -1.71738863 18.31519203 -2 21 C-2.33 21 -2.66 21 -3 21 C-3.34855655 13.37048445 -3.0017506 7.07555499 0 0 Z " fill="#27306D" transform="translate(29,39)"/>
<path d="M0 0 C0.33 0 0.66 0 1 0 C1 2.97 1 5.94 1 9 C2.98 9 4.96 9 7 9 C7 9.99 7 10.98 7 12 C4.69 12 2.38 12 0 12 C0 8.04 0 4.08 0 0 Z " fill="#FDE863" transform="translate(76,67)"/>
<path d="M0 0 C0.33 0 0.66 0 1 0 C1 2.64 1 5.28 1 8 C-2.3 8.66 -5.6 9.32 -9 10 C-8.34 9.67 -7.68 9.34 -7 9 C-7 8.34 -7 7.68 -7 7 C-5.02 6.34 -3.04 5.68 -1 5 C-0.67 3.35 -0.34 1.7 0 0 Z " fill="#D6BC58" transform="translate(84,87)"/>
<path d="M0 0 C1 3 1 3 0.29296875 4.90234375 C-0.25423828 5.90974609 -0.25423828 5.90974609 -0.8125 6.9375 C-1.16957031 7.60652344 -1.52664062 8.27554688 -1.89453125 8.96484375 C-2.44173828 9.97224609 -2.44173828 9.97224609 -3 11 C-3.67127626 12.33101856 -4.33931905 13.66369057 -5 15 C-6.04537095 12.29840881 -6.08156212 11.21584123 -5.0390625 8.45703125 C-4.57242187 7.58433594 -4.10578125 6.71164063 -3.625 5.8125 C-3.16351562 4.93207031 -2.70203125 4.05164062 -2.2265625 3.14453125 C-1 1 -1 1 0 0 Z " fill="#EDD356" transform="translate(31,33)"/>
<path d="M0 0 C0 0.99 0 1.98 0 3 C-6.6 2.67 -13.2 2.34 -20 2 C-20 1.67 -20 1.34 -20 1 C-17.60429729 0.8312461 -15.20846637 0.66493164 -12.8125 0.5 C-12.13896484 0.45230469 -11.46542969 0.40460937 -10.77148438 0.35546875 C-7.17363248 0.10976179 -3.60627694 -0.05601984 0 0 Z " fill="#D2BA5A" transform="translate(74,21)"/>
<path d="M0 0 C2.97 0 5.94 0 9 0 C9.33 0.99 9.66 1.98 10 3 C7.03 3 4.06 3 1 3 C0.67 2.01 0.34 1.02 0 0 Z " fill="#FDE564" transform="translate(21,76)"/>
<path d="M0 0 C3.37705625 0.53725895 6.696686 1.11064623 10 2 C9.67 3.98 9.34 5.96 9 8 C8.814375 7.38125 8.62875 6.7625 8.4375 6.125 C6.28562767 2.94397134 3.62466237 2.80548053 0 2 C0 1.34 0 0.68 0 0 Z " fill="#ECD364" transform="translate(75,15)"/>
<path d="M0 0 C1.43931117 0.45261358 2.87638999 0.91232979 4.3125 1.375 C5.11300781 1.63023438 5.91351563 1.88546875 6.73828125 2.1484375 C9 3 9 3 12 5 C7.03083364 4.48594831 2.70973649 3.76615118 -2 2 C-1.34 1.34 -0.68 0.68 0 0 Z " fill="#DDC35E" transform="translate(39,93)"/>
<path d="M0 0 C1.79133978 -0.05391993 3.58313899 -0.09275571 5.375 -0.125 C6.37273438 -0.14820312 7.37046875 -0.17140625 8.3984375 -0.1953125 C11 0 11 0 13 2 C11.20909747 2.19466332 9.41723495 2.38051213 7.625 2.5625 C6.12839844 2.71912109 6.12839844 2.71912109 4.6015625 2.87890625 C2 3 2 3 0 2 C0 1.34 0 0.68 0 0 Z " fill="#FEAA45" transform="translate(31,87)"/>
<path d="M0 0 C0.66 0 1.32 0 2 0 C1.67 2.31 1.34 4.62 1 7 C-0.32 7.33 -1.64 7.66 -3 8 C-2.01 5.36 -1.02 2.72 0 0 Z " fill="#26358F" transform="translate(85,19)"/>
<path d="M0 0 C0.33 0 0.66 0 1 0 C1.33 4.62 1.66 9.24 2 14 C1.34 14 0.68 14 0 14 C-0.91297308 9.02936879 -0.91297308 4.97063121 0 0 Z " fill="#E7CF59" transform="translate(25,51)"/>
<path d="M0 0 C3.3 0 6.6 0 10 0 C10.33 0.66 10.66 1.32 11 2 C6.545 2.495 6.545 2.495 2 3 C1.34 2.01 0.68 1.02 0 0 Z " fill="#FECB56" transform="translate(24,81)"/>
<path d="M0 0 C2.97 0 5.94 0 9 0 C9.33 0.66 9.66 1.32 10 2 C5.545 2.495 5.545 2.495 1 3 C0.67 2.01 0.34 1.02 0 0 Z " fill="#FEBF50" transform="translate(27,83)"/>
<path d="M0 0 C0.66 0 1.32 0 2 0 C1.74476126 1.62752231 1.47025506 3.25203196 1.1875 4.875 C1.03667969 5.77992187 0.88585937 6.68484375 0.73046875 7.6171875 C0 10 0 10 -3 12 C-2 8 -1 4 0 0 Z " fill="#3369FF" transform="translate(91,106)"/>
<path d="M0 0 C2.31 0.66 4.62 1.32 7 2 C7 2.99 7 3.98 7 5 C4.0625 4.1875 4.0625 4.1875 1 3 C0.67 2.01 0.34 1.02 0 0 Z " fill="#455ADC" transform="translate(42,83)"/>
<path d="M0 0 C0.99 0.66 1.98 1.32 3 2 C-0.96 3.98 -0.96 3.98 -5 6 C-4 2 -4 2 -1.9375 0.75 C-1.298125 0.5025 -0.65875 0.255 0 0 Z " fill="#E7CE54" transform="translate(40,25)"/>
</svg>
